<svg width="81" height="26" viewBox="0 0 81 26" fill="none" xmlns="http://www.w3.org/2000/svg">
<path d="M-1.07288e-05 1.18401H5.75999V15.2H13.216V19.424H-1.07288e-05V1.18401ZM24.0752 19.424L23.5632 17.408C22.5819 19.008 21.2166 19.808 19.4672 19.808C18.0379 19.808 16.8646 19.4133 15.9472 18.624C15.0512 17.8133 14.6032 16.6827 14.6032 15.232C14.6032 14.336 14.8592 13.5573 15.3712 12.896C15.9046 12.2133 16.6299 11.7333 17.5472 11.456C18.7419 11.1147 20.5872 10.9227 23.0832 10.88C23.0832 9.47201 23.0192 8.72534 22.8912 8.64001C22.7846 8.55468 22.4432 8.51201 21.8672 8.51201C21.5046 8.51201 21.0032 8.53334 20.3632 8.57601C19.3392 8.61868 17.9526 8.73601 16.2032 8.92801C16.0326 7.77601 15.9046 6.53868 15.8192 5.21601C16.9499 4.98134 18.1339 4.78934 19.3712 4.64001C20.6086 4.46934 21.7179 4.38401 22.6992 4.38401C24.4059 4.38401 25.6859 4.67201 26.5392 5.24801C27.3926 5.80268 27.9472 6.53868 28.2032 7.45601C28.4592 8.37334 28.5766 9.53601 28.5552 10.944L28.5232 15.648L28.6192 19.424H24.0752ZM21.3232 16.224C21.8779 16.224 22.4646 16.1173 23.0832 15.904V13.536H22.8272C21.2486 13.536 20.3739 13.6213 20.2032 13.792C20.0966 13.8987 20.0112 14.0587 19.9472 14.272C19.9046 14.4853 19.8832 14.688 19.8832 14.88C19.8832 15.392 20.0006 15.744 20.2352 15.936C20.4699 16.128 20.8326 16.224 21.3232 16.224ZM45.266 5.63201C45.458 5.86668 45.5967 6.45334 45.682 7.39201C45.7887 8.33068 45.842 9.76001 45.842 11.68V19.424H40.37V11.744V10.432C40.37 9.74934 40.3167 9.32268 40.21 9.15201C40.0393 8.93868 39.6447 8.83201 39.026 8.83201C38.7273 8.83201 38.5033 8.84268 38.354 8.86401C37.7567 8.88534 37.138 9.02401 36.498 9.28001V19.424H31.026V4.70401H35.474L36.082 7.16801C37.618 5.31201 39.4527 4.38401 41.586 4.38401C42.354 4.38401 43.0687 4.49068 43.73 4.70401C44.4127 4.91734 44.9247 5.22668 45.266 5.63201ZM63.0257 9.53674e-06V19.424H58.5137L58.0657 16.96C57.6391 17.792 57.0097 18.4533 56.1777 18.944C55.3457 19.4347 54.4071 19.68 53.3617 19.68C51.6977 19.68 50.3644 19.0827 49.3617 17.888C48.3804 16.6933 47.8897 14.9013 47.8897 12.512C47.8897 10.6987 48.1031 9.20534 48.5297 8.03201C48.9564 6.85868 49.4577 6.01601 50.0337 5.50401C50.3964 5.18401 51.1324 4.91734 52.2417 4.70401C53.3724 4.49068 54.3751 4.38401 55.2497 4.38401C56.0177 4.38401 56.8071 4.45868 57.6177 4.60801C57.5537 3.58401 57.5217 3.01868 57.5217 2.91201V0.22401L63.0257 9.53674e-06ZM55.7617 15.392C56.3377 15.392 56.9351 15.296 57.5537 15.104V8.16001C56.9351 8.07468 56.2524 8.03201 55.5057 8.03201C54.8657 8.03201 54.4604 8.08534 54.2897 8.19201C54.0551 8.36268 53.8631 8.85334 53.7137 9.66401C53.5857 10.4533 53.5217 11.2853 53.5217 12.16C53.5217 13.4613 53.7137 14.3253 54.0977 14.752C54.5031 15.1787 55.0577 15.392 55.7617 15.392ZM80.883 4.70401L77.043 17.024C76.2963 19.392 75.6243 21.1093 75.027 22.176C74.4297 23.264 73.8323 24.0213 73.235 24.448C72.8937 24.6827 72.3497 24.864 71.603 24.992C70.8777 25.12 70.0883 25.184 69.235 25.184C67.955 25.184 66.931 25.0667 66.163 24.832C66.1417 24.32 66.163 23.6907 66.227 22.944C66.291 22.2187 66.3763 21.6 66.483 21.088C67.379 21.1307 68.2537 21.152 69.107 21.152C69.747 21.152 70.227 21.1413 70.547 21.12C70.867 20.5013 71.1657 19.8507 71.443 19.168L69.235 19.04L64.307 4.70401H70.099L72.659 15.008L72.691 15.616H72.787L75.091 4.70401H80.883Z" fill="black"/>
</svg>
